<svg xmlns="http://www.w3.org/2000/svg" viewBox="0 0 64 64" focusable="false">
  <g id="Navbar-icon-esports">
    <path d="M19.635,32.049c-2.812,0-5.292-0.875-7.389-2.61C6.744,24.885,6.033,15.96,6.005,15.583   l-0.157-2.146h9.901v4h-5.434c0.496,2.515,1.703,6.628,4.49,8.928c1.653,1.363,3.629,1.893,6.044,1.611l0.46,3.974   C20.74,32.016,20.181,32.049,19.635,32.049z"></path>
    <path d="M44.279,32.049c-0.546,0-1.104-0.033-1.675-0.099l0.46-3.974c2.417,0.28,4.399-0.25,6.054-1.619   c2.636-2.182,3.943-6.188,4.49-8.92h-5.443v-4h9.901l-0.157,2.146c-0.027,0.378-0.738,9.302-6.241,13.856   C49.57,31.174,47.091,32.049,44.279,32.049z"></path>
    <path d="M23.437,54.334c-1.889,0-3.758-0.016-5.095-0.062c-0.852-0.03-1.592-0.597-1.843-1.412   c-0.25-0.815,0.044-1.7,0.733-2.203c8.173-5.964,8.631-8.358,8.64-8.778c0.001-0.039,0.001-0.069-0.018-0.104   c-11.374-4.94-10.558-28.909-10.517-29.938c0.042-1.073,0.925-1.921,1.999-1.921h29.33c1.074,0,1.956,0.848,1.999,1.921   c0.041,1.029,0.857,25.025-10.537,29.947c-0.049,0.063-0.049,0.1-0.049,0.126c-0.004,1.736,4.844,5.637,7.174,7.512   c0.579,0.465,1.126,0.906,1.616,1.313c0.639,0.53,0.883,1.4,0.615,2.185c-0.269,0.786-0.994,1.324-1.823,1.353   c-3.527,0.121-13.201,0.029-14.959,0.005C29.83,54.291,26.604,54.334,23.437,54.334z M30.698,50.278   c1.151,0.015,5.496,0.047,9.368,0.056c-3.539-3.015-5.995-5.694-5.989-8.434c0.002-0.928,0.302-2.27,1.715-3.396   c0.158-0.126,0.335-0.228,0.524-0.301c6.91-2.675,8.367-16.999,8.384-24.287H19.302c0.021,7.291,1.484,21.616,8.382,24.287   c0.189,0.073,0.366,0.175,0.524,0.301c1.117,0.89,1.691,2.086,1.662,3.46c-0.049,2.339-1.859,5.001-5.758,8.369   C27.024,50.328,29.863,50.29,30.698,50.278z"></path>
  </g>
</svg>